# xmcd CD database file
#
# Track frame offsets:
#	150
#	16307
#	34202
#
# Disc length: 692 seconds
#
# Revision: 0
# Processed by: cddbd v1.5.1PL0 Copyright (c) Steve Scherf et al.
# Submitted via: CDex 1.51
#
DISCID=1b02b203
DTITLE=KOTO - 北極星 -The Polestar- - Reality
DYEAR=2005
DGENRE=JPop
TTITLE0=北極星 -The Polestar-
TTITLE1=Reality (Japanese version)
TTITLE2=Reality (English version)
EXTD=YEAR: 2005
EXTT0=
EXTT1=
EXTT2=
PLAYORDER=
